<!DOCTYPE svg PUBLIC "-//W3C//DTD SVG 20010904//EN" "http://www.w3.org/TR/2001/REC-SVG-20010904/DTD/svg10.dtd">
<svg version="1.0" xmlns="http://www.w3.org/2000/svg" width="412px" height="402px" viewBox="0 0 4120 4020" preserveAspectRatio="xMidYMid meet">
<g id="layer101" fill="#0098e4" stroke="none">
 <path d="M1975 3911 c-6 -5 -27 -19 -47 -30 -21 -12 -54 -30 -73 -41 -19 -11 -51 -29 -70 -40 -19 -11 -51 -29 -70 -40 -19 -11 -51 -29 -70 -40 -19 -11 -50 -29 -69 -39 -18 -11 -64 -38 -101 -60 -37 -23 -69 -41 -72 -41 -3 0 -17 -8 -31 -18 -15 -11 -52 -32 -82 -49 -68 -37 -109 -61 -180 -103 -30 -18 -80 -46 -110 -63 -30 -17 -67 -38 -82 -49 -14 -10 -29 -18 -33 -18 -4 0 -19 -8 -33 -18 -15 -11 -52 -32 -82 -49 -59 -32 -80 -44 -210 -120 -124 -72 -126 -74 -144 -104 -14 -24 -16 -117 -16 -937 l0 -910 24 -29 c13 -16 37 -35 52 -43 16 -8 57 -32 91 -52 35 -21 65 -38 67 -38 3 0 41 -22 86 -50 45 -27 86 -50 91 -50 5 0 9 -3 9 -8 0 -4 17 -15 38 -25 20 -9 57 -29 82 -43 25 -15 59 -35 75 -44 17 -9 55 -32 85 -50 56 -33 90 -53 157 -91 21 -12 49 -29 63 -38 14 -9 39 -23 55 -31 17 -8 49 -27 72 -42 23 -15 46 -28 52 -28 5 0 47 -23 93 -52 46 -28 101 -60 123 -71 22 -11 66 -37 97 -58 31 -22 64 -39 72 -39 9 0 16 -4 16 -9 0 -5 8 -11 18 -15 9 -3 33 -15 52 -26 44 -26 87 -25 125 1 17 11 39 24 50 30 11 5 43 23 70 39 28 16 66 38 85 47 19 10 37 21 38 26 2 4 8 7 13 7 5 0 26 11 47 23 20 13 57 35 82 49 42 23 60 34 155 88 19 11 51 29 70 40 19 11 50 29 69 39 18 11 62 36 97 58 35 21 78 45 94 53 17 8 32 17 35 20 3 3 16 11 29 18 37 21 87 50 126 72 19 11 51 29 70 40 88 50 103 59 155 90 54 32 85 50 154 89 72 41 81 46 92 56 33 31 34 46 34 968 0 903 0 915 -20 940 -11 14 -33 32 -48 40 -15 8 -99 56 -187 107 -201 116 -217 125 -260 150 -19 11 -51 29 -70 40 -62 36 -98 57 -190 110 -90 52 -126 73 -187 109 -18 10 -53 30 -78 45 -25 15 -53 29 -62 33 -10 3 -18 9 -18 14 0 5 -4 9 -9 9 -7 0 -107 56 -358 201 -18 11 -49 28 -68 39 -37 21 -114 27 -130 11z m219 -318 c83 -47 184 -106 223 -130 40 -23 75 -43 77 -43 3 0 103 -57 156 -90 25 -16 192 -111 250 -143 30 -16 66 -38 80 -47 14 -9 50 -30 80 -47 30 -17 69 -39 87 -49 17 -10 91 -52 162 -93 l131 -74 1 -66 c3 -420 4 -721 2 -1107 l-3 -461 -107 -63 c-60 -34 -128 -74 -153 -88 -25 -13 -49 -28 -55 -32 -5 -4 -30 -19 -55 -32 -25 -14 -117 -67 -205 -118 -185 -107 -211 -122 -262 -151 -21 -12 -45 -27 -53 -34 -8 -7 -25 -16 -37 -19 -13 -4 -29 -13 -36 -19 -7 -7 -26 -19 -42 -28 -109 -59 -158 -87 -214 -121 -34 -21 -65 -38 -68 -38 -3 0 -27 -16 -53 -35 -26 -19 -54 -35 -62 -35 -18 0 -68 23 -68 32 0 3 -12 13 -27 21 -16 7 -46 24 -68 37 -22 13 -52 30 -67 37 -15 8 -30 18 -33 24 -4 5 -15 9 -25 9 -10 0 -20 3 -22 8 -2 4 -19 16 -39 27 -21 11 -79 45 -130 76 -52 31 -110 66 -129 76 -19 11 -59 34 -88 52 -29 17 -55 31 -57 31 -4 0 -98 55 -155 90 -8 5 -69 40 -135 78 -66 38 -177 102 -248 143 l-127 73 0 812 0 812 25 16 c31 20 252 149 325 189 30 16 60 33 65 37 6 5 82 49 170 100 88 51 175 101 193 111 17 10 48 28 67 39 19 11 51 29 70 40 19 11 52 30 73 41 20 12 49 30 64 40 14 11 29 19 32 19 4 0 36 18 72 40 36 22 68 40 69 40 2 0 32 17 67 37 100 60 102 61 117 62 7 1 82 -38 165 -86z"/>
 <path d="M1987 3326 c-16 -7 -37 -26 -48 -42 -17 -27 -19 -49 -19 -294 0 -298 9 -263 -79 -312 -20 -12 -58 -34 -86 -50 -27 -15 -81 -47 -120 -69 -162 -93 -211 -126 -223 -154 -8 -18 -12 -113 -12 -304 l0 -278 -86 -49 c-47 -27 -101 -59 -120 -71 -68 -44 -64 -70 -64 426 l0 450 160 91 160 92 45 -18 c114 -43 247 24 290 147 20 56 19 88 -6 153 -51 137 -219 188 -336 104 -53 -38 -82 -81 -99 -147 -12 -49 -13 -49 -214 -163 -126 -72 -190 -115 -203 -137 -12 -22 -16 -117 -22 -597 -4 -314 -4 -595 0 -623 10 -71 59 -121 117 -121 20 0 120 53 306 161 64 38 108 62 145 83 l37 20 53 -28 c61 -32 151 -84 302 -174 164 -97 162 -97 371 23 174 100 212 122 277 158 l38 21 47 -24 c79 -42 212 -122 212 -129 0 -3 -33 -24 -73 -47 -57 -32 -339 -194 -407 -234 -8 -5 -46 -27 -84 -50 -37 -22 -70 -40 -72 -40 -1 0 -29 -16 -61 -35 -32 -19 -68 -35 -81 -35 -13 0 -90 39 -172 87 l-148 87 -7 45 c-8 55 -17 73 -58 117 -80 89 -218 99 -310 23 -73 -60 -102 -158 -73 -246 40 -121 171 -189 285 -150 40 14 68 13 81 -3 5 -6 93 -57 210 -122 25 -14 70 -40 100 -58 76 -46 108 -45 200 9 96 56 132 76 174 100 19 11 52 31 73 44 21 13 45 26 53 30 8 4 22 11 30 17 17 11 103 61 170 98 109 61 205 116 210 122 3 3 30 18 60 34 30 17 93 53 139 80 73 44 86 56 98 91 11 31 11 46 2 70 -18 45 -36 61 -108 102 -87 48 -104 58 -246 140 l-120 70 -5 285 -5 285 -26 34 c-15 19 -44 43 -65 55 -22 12 -111 63 -199 114 -88 51 -173 101 -190 110 l-30 17 -3 146 c-2 134 -1 147 15 147 9 0 58 -23 108 -52 158 -90 380 -218 395 -228 15 -9 117 -68 205 -118 l50 -29 3 -187 2 -188 -39 -38 c-52 -50 -73 -97 -73 -163 -1 -106 75 -201 182 -227 42 -10 58 -9 104 5 151 48 219 226 130 342 -13 17 -24 36 -24 41 0 5 -11 14 -25 20 -29 14 -28 -4 -29 272 -1 260 5 248 -159 341 -61 35 -131 76 -156 90 -75 43 -107 61 -301 174 -102 59 -203 117 -225 130 -22 12 -58 32 -80 45 -22 12 -44 26 -50 30 -25 20 -134 70 -151 69 -11 0 -32 -6 -47 -13z m138 -882 c44 -26 96 -55 115 -66 19 -11 65 -38 103 -60 l67 -40 0 -222 0 -222 -32 -17 c-18 -9 -40 -21 -48 -27 -60 -40 -283 -160 -297 -160 -18 0 -35 8 -105 48 -21 12 -53 30 -70 41 -18 10 -57 32 -86 50 -29 17 -55 31 -58 31 -3 0 -19 9 -35 21 l-29 20 0 218 0 217 53 31 c191 113 314 182 327 183 8 0 51 -21 95 -46z"/>
 </g>

</svg>